<svg xmlns="http://www.w3.org/2000/svg" width="307" height="282" fill="none" viewBox="0 0 307 282"><defs><linearGradient id="paint0_linear" x1="84.076" x2="387.991" y1="105.988" y2="-148.81" gradientUnits="userSpaceOnUse"><stop offset=".004" stop-color="#E38DDD"/><stop offset="1" stop-color="#9571F6"/></linearGradient><linearGradient id="paint1_linear" x1="72.792" x2="182.234" y1="145.668" y2="145.668" gradientUnits="userSpaceOnUse"><stop stop-color="#444B8C"/><stop offset=".996" stop-color="#26264F"/></linearGradient><linearGradient id="paint2_linear" x1="215.011" x2="-50.042" y1="139.677" y2="154.878" gradientUnits="userSpaceOnUse"><stop stop-color="#444B8C"/><stop offset=".996" stop-color="#2D31AC"/></linearGradient><linearGradient id="paint3_linear" x1="99.245" x2="206.176" y1="145.594" y2="145.594" gradientUnits="userSpaceOnUse"><stop stop-color="#444B8C"/><stop offset=".996" stop-color="#2D31AC"/></linearGradient><linearGradient id="paint4_linear" x1="99.245" x2="121.631" y1="145.606" y2="145.606" gradientUnits="userSpaceOnUse"><stop stop-color="#444B8C"/><stop offset=".996" stop-color="#26264F"/></linearGradient><linearGradient id="paint5_linear" x1="182.292" x2="158.28" y1="-36.311" y2="116.656" gradientUnits="userSpaceOnUse"><stop stop-color="#444B8C"/><stop offset=".484" stop-color="#35396E"/><stop offset=".996" stop-color="#26264F"/></linearGradient><linearGradient id="paint6_linear" x1="162.634" x2="166.267" y1="176.382" y2="399.807" gradientUnits="userSpaceOnUse"><stop stop-color="#444B8C"/><stop offset=".996" stop-color="#2D31AC"/></linearGradient><linearGradient id="paint7_linear" x1="128.536" x2="107.864" y1="41.449" y2="173.136" gradientUnits="userSpaceOnUse"><stop stop-color="#444B8C"/><stop offset=".996" stop-color="#26264F"/></linearGradient></defs><path fill="url(#paint0_linear)" d="M97.2195 225.072C126.76 212.439 139.545 173.72 129.862 160.209C124.825 153.182 115.795 155.882 111.582 147.882C106.914 139.019 115.692 131.323 119.426 110.776C121.356 100.16 124.854 80.9099 115.34 71.5725C105.904 62.3126 93.0781 72.0336 82.3753 62.6318C72.2551 53.7415 79.8769 41.6711 68.5981 26.1947C67.549 24.755 55.5483 8.70004 42.4297 10.8896C29.1015 13.1141 19.3269 33.3839 22.4287 48.3397C25.2468 61.9274 37.8649 67.1351 35.4018 74.1457C32.6872 81.8715 16.4748 78.0779 12.9242 85.7468C7.79214 96.8317 37.9214 112.844 34.3 131.425C32.1705 142.352 20.7978 141.713 15.135 154.806C7.82628 171.705 17.797 193.517 28.084 205.669C42.9923 223.281 71.615 236.021 97.2195 225.072Z"/><g opacity=".7"><path fill="#fff" d="M80.2772 239.227L81.2952 239.202C80.3189 199.783 77.1865 162.684 71.9843 128.937C67.8217 101.933 62.3321 77.0018 55.668 54.8344C44.3118 17.0596 33.3174 0.176472 33.2078 0.0103455L32.358 0.571614C32.467 0.736924 43.3996 17.5387 54.714 55.1986C65.1576 89.9596 78.07 150.104 80.2772 239.227Z" opacity=".7"/><path fill="#fff" d="M56.6289 58.4945C69.0733 29.4886 64.839 2.52792 64.7947 2.25888L63.7898 2.42419C63.8338 2.69061 68.0152 29.3713 55.6931 58.093L56.6289 58.4945Z" opacity=".7"/><path fill="#fff" d="M72.8275 133.76C95.542 107.948 104.999 88.1122 108.932 76.0175C113.216 62.8437 112.106 55.8825 112.056 55.5927L111.052 55.7631C111.064 55.8322 112.165 62.8396 107.928 75.8108C104.013 87.7959 94.6132 107.462 72.063 133.087L72.8275 133.76Z" opacity=".7"/><path fill="#fff" d="M79.683 205.772C128.52 170.726 137.881 136.542 137.97 136.2L136.984 135.944C136.962 136.03 134.509 144.883 125.808 158.052C118.146 169.648 103.822 187.196 79.0894 204.945L79.683 205.772Z" opacity=".7"/><path fill="#fff" d="M60.3757 120.777C63.6306 122.132 67.0136 123.332 70.5238 124.338L70.8043 123.359C47.8689 116.79 30.3 101.749 19.6013 90.2882C8.00346 77.864 1.76433 66.8677 1.70274 66.7581L0.814941 67.2574C0.877341 67.3682 7.17642 78.4707 18.8566 90.9832C28.0084 100.787 42.1526 113.192 60.3757 120.777Z" opacity=".7"/><path fill="#fff" d="M74.0482 190.783C75.468 191.344 76.9275 191.865 78.4305 192.342L78.6915 191.602C59.6345 185.549 47.3905 172.278 40.474 162.211C32.974 151.293 29.9526 141.7 29.923 141.604L29.1337 141.825C29.1638 141.921 32.2195 151.625 39.7848 162.637C46.2279 172.016 57.254 184.149 74.0482 190.783Z" opacity=".7"/></g><path fill="#D8DEE8" d="M149.803 248.224C121.522 226.246 118.687 180.878 132.95 169.048C140.369 162.894 149.343 168.36 156.149 160.925C163.689 152.688 156.4 141.906 158.185 118.694C159.107 106.701 160.78 84.9524 173.681 77.5744C186.475 70.2577 197.556 84.3682 211.756 77.2572C225.184 70.5331 220.379 55.3611 236.919 41.8627C238.457 40.607 255.939 26.6885 269.466 32.7602C283.209 38.9288 288.017 63.5515 280.441 78.8014C273.559 92.6564 258.48 94.703 259.153 102.96C259.895 112.059 278.45 112.554 280.11 121.827C282.509 135.232 245.49 143.977 244.139 165.038C243.345 177.423 258.559 181.572 253.125 196.518C244.367 220.611 238.193 225.555 223.663 235.749C202.606 250.524 174.317 267.274 149.803 248.224Z"/><g opacity=".7"><path fill="#fff" d="M164.069 268.281L162.978 267.966C175.181 225.734 189.052 186.616 204.207 151.696C216.334 123.755 229.305 98.4225 242.761 76.404C265.692 38.8815 282.323 23.7858 282.488 23.6375L283.246 24.483C283.081 24.6306 266.54 39.6562 243.687 77.0659C222.593 111.596 191.657 172.8 164.069 268.281Z" opacity=".7"/><path fill="#fff" d="M240.69 80.0785C235.475 45.2805 247.667 17.4056 247.79 17.1279L248.827 17.5904C248.705 17.8649 236.649 45.4533 241.812 79.9104L240.69 80.0785Z" opacity=".7"/><path fill="#fff" d="M201.933 156.658C184.741 122.399 180.153 98.3354 179.333 84.1804C178.439 68.763 181.606 61.5705 181.741 61.2719L182.776 61.7396C182.743 61.811 179.574 69.0557 180.474 84.2411C181.306 98.2726 185.88 122.138 202.948 156.149L201.933 156.658Z" opacity=".7"/><path fill="#fff" d="M174.172 232.373C131.423 180.768 130.997 141.258 130.998 140.865L132.133 140.867C132.133 140.965 132.274 151.207 137.931 167.868C142.914 182.539 153.397 205.514 175.046 231.649L174.172 232.373Z" opacity=".7"/><path fill="#fff" d="M219.033 146.181C215.14 146.721 211.153 147.059 207.083 147.15L207.058 146.015C233.648 145.419 256.847 134.169 271.626 124.836C287.647 114.719 297.485 104.626 297.582 104.526L298.398 105.315C298.299 105.417 288.367 115.607 272.232 125.796C259.59 133.78 240.829 143.155 219.033 146.181Z" opacity=".7"/><path fill="#fff" d="M184.195 217.635C182.518 217.874 180.81 218.054 179.068 218.17L179.007 217.231C201.09 215.751 218.019 203.866 228.334 194.155C239.518 183.626 245.542 173.328 245.601 173.225L246.378 173.713C246.318 173.817 240.226 184.232 228.944 194.854C219.335 203.9 204.036 214.815 184.195 217.635Z" opacity=".7"/></g><path fill="url(#paint1_linear)" d="M182.234 271.585C178.326 274.629 173.534 276.526 168.39 276.957L110.747 281.787C105.301 282.243 100.181 281.122 95.9691 278.644C90.7996 275.599 87.009 270.688 85.6756 264.565C68.8467 187.147 68.5006 106.379 84.6586 28.1822C86.1026 21.1879 90.7136 15.4988 96.9168 12.298C100.733 10.3316 105.144 9.29253 109.785 9.46927L169.299 11.7343C173.681 11.9011 177.81 13.1927 181.357 15.3588C159.233 99.5654 159.531 188.411 182.234 271.585Z"/><path fill="url(#paint2_linear)" d="M185.264 271.337C181.366 274.377 176.588 276.271 171.458 276.7L113.981 281.516C108.55 281.971 103.445 280.851 99.2454 278.376C94.0909 275.335 90.3117 270.431 88.982 264.317C72.2024 187.011 71.8573 106.362 87.9679 28.2795C89.4077 21.2952 94.0055 15.6144 100.19 12.4178C103.995 10.4542 108.394 9.4161 113.021 9.59236L172.365 11.851C176.735 12.0173 180.853 13.3068 184.39 15.47C162.328 99.5584 162.625 188.278 185.264 271.337Z"/><path fill="url(#paint3_linear)" d="M194.673 256.407C193.463 262.428 190.01 267.633 185.264 271.337C181.366 274.377 176.588 276.271 171.458 276.7L113.981 281.516C108.55 281.971 103.444 280.851 99.2452 278.376C123.208 189.97 123.519 99.6958 100.19 12.3852C103.995 10.4216 108.394 9.41597 113.021 9.59223L172.365 11.8509C176.735 12.0171 180.853 13.3483 184.39 15.5115C190.089 18.9936 194.285 24.7141 195.593 31.4495C210.003 105.684 209.699 181.463 194.673 256.407Z"/><path fill="url(#paint4_linear)" d="M103.709 280.49C127.349 190.848 127.601 99.2631 104.473 10.7211C102.981 11.1713 101.547 11.7499 100.19 12.4503C123.519 99.7604 123.209 190.056 99.2454 278.462C100.64 279.284 102.136 279.963 103.709 280.49Z"/><path fill="url(#paint5_linear)" d="M202.67 87.6956V202.749C202.67 212.878 196.902 221.605 189.675 222.219L119.787 228.172C118.513 228.281 117.104 228.169 115.923 227.848C109.695 226.169 104.885 218.913 104.885 209.846V87.2457C104.885 84.6275 105.484 82.3057 106.188 80.0288C108.375 72.9303 113.709 68.1626 119.756 68.264L189.619 69.4313C196.846 69.5524 202.67 77.5674 202.67 87.6956Z"/><path fill="url(#paint6_linear)" d="M210.367 202.695C210.367 212.789 204.661 221.465 197.496 222.077L128.291 228.002C120.369 228.678 114.008 220.52 114.008 209.767V87.6435C114.008 76.8905 120.393 68.2776 128.316 68.4101L197.545 69.5677C204.709 69.6876 210.368 77.9639 210.368 88.0579V202.695H210.367Z"/><path fill="url(#paint7_linear)" d="M115.962 227.862C109.734 226.183 104.885 218.913 104.885 209.847V87.2457C104.885 84.6276 105.484 82.1345 106.188 79.8578C108.014 84.638 109.618 91.9672 108.803 102.676C107.06 125.589 108.503 132.057 111.048 148.36C113.584 164.611 108.663 182.139 108.777 194.19C108.871 204.507 106.597 221.349 115.962 227.862Z" opacity=".3"/><path fill="#fff" d="M200.241 134.394C200.241 128.663 197.988 123.241 193.895 119.124C189.798 115.003 184.322 112.667 178.485 112.568C173.099 112.477 167.993 114.295 163.963 117.717C159.973 114.361 154.956 112.484 149.67 112.395C143.929 112.299 138.504 114.309 134.314 118.078C134.142 118.23 133.977 118.383 133.811 118.541C125.242 126.744 124.928 140.073 133.092 148.804L153.856 169.327C156.538 171.947 160.105 173.387 163.888 173.377C167.656 173.366 171.198 171.913 173.856 169.298L193.859 149.575C193.871 149.557 193.883 149.544 193.895 149.532C193.969 149.466 194.036 149.393 194.104 149.327L194.783 148.65L194.759 148.632C198.306 144.716 200.241 139.707 200.241 134.394ZM186.311 146.05L175.891 145.987C175.587 145.985 175.296 145.348 175.054 145.175L170.626 141.771L167.594 146.463L159.566 158.883C159.297 159.306 158.827 159.428 158.332 159.427C158.2 159.427 157.649 159.395 157.517 159.358C156.89 159.179 156.05 158.606 156.05 157.967V133.006L152.795 138.713L150.156 143.2C149.892 143.623 149.611 143.979 149.106 143.976L130.793 143.854C129.976 143.849 129.323 143.095 129.323 142.295C129.323 141.495 130.003 140.751 130.819 140.757L148.354 140.891L150.631 137.338L157.089 127.252C157.434 126.715 158.025 126.474 158.646 126.654C159.278 126.839 159.625 127.405 159.625 128.044V153.019L164.844 145.003L168.937 138.694C169.148 138.359 169.514 138.129 169.906 138.059C170.298 137.983 170.717 138.518 171.04 138.747L176.345 142.937L186.309 143.007C187.103 143.013 187.744 143.753 187.744 144.538C187.744 145.323 187.105 146.055 186.311 146.05Z" opacity=".7"/></svg>