<svg xmlns="http://www.w3.org/2000/svg" width="330" height="314" fill="none" viewBox="0 0 330 314"><defs><linearGradient id="paint0_linear" x1="83.261" x2="387.176" y1="116.977" y2="-137.82" gradientUnits="userSpaceOnUse"><stop offset=".004" stop-color="#E38DDD"/><stop offset="1" stop-color="#9571F6"/></linearGradient><linearGradient id="paint1_linear" x1="91.02" x2="-15.591" y1="225.775" y2="237.109" gradientUnits="userSpaceOnUse"><stop stop-color="#FFC444"/><stop offset=".996" stop-color="#F36F56"/></linearGradient><linearGradient id="paint2_linear" x1="147.86" x2="238.432" y1="178.432" y2="372.37" gradientUnits="userSpaceOnUse"><stop stop-color="#FFC444"/><stop offset=".996" stop-color="#F36F56"/></linearGradient><linearGradient id="paint3_linear" x1="168.937" x2="174.711" y1="204.105" y2="13.325" gradientUnits="userSpaceOnUse"><stop stop-color="#FFC444"/><stop offset=".996" stop-color="#F36F56"/></linearGradient><linearGradient id="paint4_linear" x1="147.858" x2="238.43" y1="178.433" y2="372.371" gradientUnits="userSpaceOnUse"><stop stop-color="#FFC444"/><stop offset=".996" stop-color="#F36F56"/></linearGradient><linearGradient id="paint5_linear" x1="146.116" x2="281.578" y1="185.745" y2="-29.708" gradientUnits="userSpaceOnUse"><stop stop-color="#FFC444"/><stop offset=".996" stop-color="#F36F56"/></linearGradient><linearGradient id="paint6_linear" x1="172.958" x2="263.53" y1="166.71" y2="360.649" gradientUnits="userSpaceOnUse"><stop stop-color="#FFC444"/><stop offset=".996" stop-color="#F36F56"/></linearGradient><linearGradient id="paint7_linear" x1="273.663" x2="162.089" y1="34.203" y2="109.988" gradientUnits="userSpaceOnUse"><stop stop-color="#311944"/><stop offset="1" stop-color="#6B3976"/></linearGradient><linearGradient id="paint8_linear" x1="288.671" x2="259.857" y1="80.73" y2="159.838" gradientUnits="userSpaceOnUse"><stop stop-color="#FFC444"/><stop offset=".996" stop-color="#F36F56"/></linearGradient><linearGradient id="paint9_linear" x1="320.6" x2="306.974" y1="214.981" y2="205.861" gradientUnits="userSpaceOnUse"><stop stop-color="#311944"/><stop offset="1" stop-color="#6B3976"/></linearGradient><linearGradient id="paint10_linear" x1="316.129" x2="289.371" y1="218.619" y2="138.347" gradientUnits="userSpaceOnUse"><stop stop-color="#FFC444"/><stop offset=".996" stop-color="#F36F56"/></linearGradient><linearGradient id="paint11_linear" x1="320.615" x2="311.426" y1="181.757" y2="181.757" gradientUnits="userSpaceOnUse"><stop stop-color="#311944"/><stop offset="1" stop-color="#6B3976"/></linearGradient><linearGradient id="paint12_linear" x1="325.941" x2="310.936" y1="206.99" y2="161.973" gradientUnits="userSpaceOnUse"><stop stop-color="#FFC444"/><stop offset=".996" stop-color="#F36F56"/></linearGradient><linearGradient id="paint13_linear" x1="307.451" x2="296.259" y1="131.147" y2="195.853" gradientUnits="userSpaceOnUse"><stop stop-color="#AA80F9"/><stop offset=".996" stop-color="#6165D7"/></linearGradient><linearGradient id="paint14_linear" x1="291.645" x2="275.731" y1="207.833" y2="157.467" gradientUnits="userSpaceOnUse"><stop stop-color="#AA80F9"/><stop offset=".996" stop-color="#6165D7"/></linearGradient><linearGradient id="paint15_linear" x1="291.644" x2="275.73" y1="207.834" y2="157.468" gradientUnits="userSpaceOnUse"><stop stop-color="#AA80F9"/><stop offset=".996" stop-color="#6165D7"/></linearGradient><linearGradient id="paint16_linear" x1="269.25" x2="258.084" y1="124.617" y2="189.173" gradientUnits="userSpaceOnUse"><stop stop-color="#AA80F9"/><stop offset=".996" stop-color="#6165D7"/></linearGradient><linearGradient id="paint17_linear" x1="265.093" x2="236.278" y1="72.141" y2="151.25" gradientUnits="userSpaceOnUse"><stop stop-color="#FFC444"/><stop offset=".996" stop-color="#F36F56"/></linearGradient><linearGradient id="paint18_linear" x1="251.478" x2="258.019" y1="82.458" y2="52.772" gradientUnits="userSpaceOnUse"><stop stop-color="#FFC444"/><stop offset=".996" stop-color="#F36F56"/></linearGradient><linearGradient id="paint19_linear" x1="255.912" x2="248.416" y1="56.008" y2="94.62" gradientUnits="userSpaceOnUse"><stop stop-color="#FFC444"/><stop offset=".996" stop-color="#F36F56"/></linearGradient><linearGradient id="paint20_linear" x1="282.54" x2="222.191" y1="122.539" y2="122.539" gradientUnits="userSpaceOnUse"><stop stop-color="#FFC444"/><stop offset=".996" stop-color="#F36F56"/></linearGradient><linearGradient id="paint21_linear" x1="288.372" x2="245.02" y1="123.773" y2="123.773" gradientUnits="userSpaceOnUse"><stop stop-color="#40447E"/><stop offset=".996" stop-color="#3C3B6B"/></linearGradient><linearGradient id="paint22_linear" x1="316.096" x2="287.673" y1="96.427" y2="124.622" gradientUnits="userSpaceOnUse"><stop stop-color="#40447E"/><stop offset=".996" stop-color="#3C3B6B"/></linearGradient><linearGradient id="paint23_linear" x1="316.096" x2="287.673" y1="96.427" y2="124.622" gradientUnits="userSpaceOnUse"><stop stop-color="#40447E"/><stop offset=".996" stop-color="#3C3B6B"/></linearGradient><linearGradient id="paint24_linear" x1="252.956" x2="160.226" y1="118.712" y2="40.127" gradientUnits="userSpaceOnUse"><stop stop-color="#FFC444"/><stop offset=".996" stop-color="#F36F56"/></linearGradient><linearGradient id="paint25_linear" x1="261.223" x2="246.812" y1="115.225" y2="128.805" gradientUnits="userSpaceOnUse"><stop stop-color="#FFC444"/><stop offset=".996" stop-color="#F36F56"/></linearGradient></defs><path fill="url(#paint0_linear)" d="M96.4045 236.062C125.945 223.429 138.73 184.71 129.047 171.199C124.01 164.172 114.98 166.872 110.767 158.872C106.099 150.008 114.878 142.312 118.611 121.766C120.541 111.15 124.039 91.8996 114.525 82.5623C105.089 73.3023 92.2632 83.0234 81.5603 73.6215C71.4402 64.7312 79.0619 52.6609 67.7831 37.1845C66.7341 35.7447 54.7333 19.6898 41.6148 21.8793C28.2866 24.1038 18.5119 44.3737 21.6138 59.3294C24.4319 72.9171 37.05 78.1249 34.5868 85.1355C31.8723 92.8613 15.6599 89.0676 12.1093 96.7366C6.9772 107.821 37.1065 123.834 33.485 142.415C31.3556 153.342 19.9829 152.703 14.3201 165.796C7.01134 182.695 16.982 204.507 27.2691 216.659C42.1773 234.27 70.8 247.011 96.4045 236.062Z"/><g opacity=".7"><path fill="#fff" d="M79.4623 250.217L80.4803 250.192C79.504 210.772 76.3716 173.674 71.1694 139.927C67.0068 112.923 61.5173 87.9915 54.8531 65.8242C43.4969 28.0493 32.5025 11.1662 32.3929 11.0001L31.5432 11.5613C31.6521 11.7266 42.5847 28.5284 53.8991 66.1883C64.3427 100.949 77.2552 161.094 79.4623 250.217Z" opacity=".7"/><path fill="#fff" d="M55.8141 69.4842C68.2585 40.4783 64.0241 13.5176 63.9799 13.2486L62.9749 13.4139C63.0189 13.6803 67.2003 40.361 54.8782 69.0827L55.8141 69.4842Z" opacity=".7"/><path fill="#fff" d="M72.0125 144.75C94.727 118.937 104.184 99.1019 108.117 87.0072C112.401 73.8334 111.291 66.8722 111.241 66.5825L110.237 66.7528C110.249 66.8219 111.35 73.8293 107.113 86.8005C103.198 98.7856 93.7982 118.451 71.248 144.077L72.0125 144.75Z" opacity=".7"/><path fill="#fff" d="M78.868 216.762C127.705 181.715 137.066 147.531 137.155 147.19L136.169 146.933C136.147 147.019 133.694 155.873 124.993 169.042C117.331 180.637 103.007 198.186 78.2744 215.935L78.868 216.762Z" opacity=".7"/><path fill="#fff" d="M59.5607 131.767C62.8156 133.122 66.1986 134.322 69.7088 135.328L69.9893 134.348C47.0539 127.779 29.485 112.739 18.7863 101.278C7.18845 88.8537 0.949325 77.8574 0.887742 77.7478L-6.10352e-05 78.2472C0.0623384 78.3579 6.36142 89.4604 18.0415 101.973C27.1934 111.777 41.3376 124.181 59.5607 131.767Z" opacity=".7"/><path fill="#fff" d="M73.2332 201.772C74.653 202.333 76.1126 202.854 77.6155 203.332L77.8766 202.591C58.8196 196.539 46.5755 183.268 39.659 173.2C32.1591 162.283 29.1376 152.689 29.1081 152.594L28.3187 152.814C28.3488 152.911 31.4046 162.615 38.9699 173.627C45.4129 183.005 56.439 195.138 73.2332 201.772Z" opacity=".7"/></g><path fill="#D8DEE8" d="M155.496 233.561C127.215 211.583 124.38 166.215 138.643 154.385C146.062 148.231 155.036 153.697 161.842 146.262C169.382 138.025 162.093 127.243 163.878 104.031C164.8 92.0376 166.473 70.2894 179.374 62.9113C192.168 55.5947 203.249 69.7052 217.449 62.5941C230.877 55.87 226.072 40.6981 242.612 27.1997C244.15 25.944 261.632 12.0255 275.159 18.0971C288.902 24.2658 293.71 48.8885 286.135 64.1384C279.252 77.9934 264.173 80.0399 264.846 88.2967C265.588 97.3956 284.144 97.8905 285.803 107.164C288.202 120.569 251.183 129.314 249.832 150.375C249.038 162.76 264.252 166.909 258.818 181.855C250.06 205.948 243.887 210.892 229.356 221.086C208.299 235.861 180.01 252.611 155.496 233.561Z"/><g opacity=".7"><path fill="#fff" d="M169.762 253.618L168.671 253.303C180.874 211.071 194.745 171.953 209.9 137.033C222.027 109.092 234.998 83.7595 248.455 61.741C271.385 24.2185 288.016 9.12273 288.181 8.97448L288.939 9.81993C288.774 9.96751 272.233 24.9931 249.38 62.4028C228.286 96.9332 197.35 158.137 169.762 253.618Z" opacity=".7"/><path fill="#fff" d="M246.383 65.4155C241.168 30.6175 253.36 2.74255 253.483 2.46482L254.52 2.92732C254.398 3.20188 242.342 30.7902 247.506 65.2473L246.383 65.4155Z" opacity=".7"/><path fill="#fff" d="M207.626 141.995C190.434 107.736 185.846 83.6723 185.026 69.5174C184.133 54.0999 187.299 46.9074 187.434 46.6088L188.469 47.0765C188.436 47.1479 185.267 54.3926 186.167 69.5781C186.999 83.6095 191.573 107.475 208.641 141.486L207.626 141.995Z" opacity=".7"/><path fill="#fff" d="M179.866 217.71C137.116 166.105 136.69 126.595 136.691 126.202L137.826 126.204C137.826 126.302 137.967 136.543 143.625 153.205C148.607 167.876 159.09 190.851 180.74 216.986L179.866 217.71Z" opacity=".7"/><path fill="#fff" d="M224.726 131.517C220.833 132.058 216.846 132.396 212.776 132.487L212.751 131.352C239.341 130.756 262.54 119.506 277.319 110.173C293.34 100.056 303.178 89.9631 303.275 89.8625L304.091 90.6518C303.993 90.7536 294.06 100.944 277.925 111.133C265.283 119.116 246.522 128.492 224.726 131.517Z" opacity=".7"/><path fill="#fff" d="M189.888 202.972C188.211 203.211 186.503 203.391 184.761 203.507L184.7 202.568C206.783 201.088 223.712 189.203 234.027 179.492C245.211 168.962 251.235 158.665 251.294 158.562L252.072 159.05C252.011 159.154 245.919 169.569 234.637 180.191C225.028 189.237 209.73 200.152 189.888 202.972Z" opacity=".7"/></g><path fill="url(#paint1_linear)" d="M287.357 145.629L47.2746 141.066C42.205 140.969 38 145.097 38 150.169V304.903C38 310.119 42.4351 314.165 47.6362 313.694L287.719 291.963C292.397 291.54 296.014 287.586 296.014 282.894V154.455C296.014 149.624 292.185 145.721 287.357 145.629Z"/><path fill="url(#paint2_linear)" d="M291.484 145.565L51.4013 141.002C46.3318 140.905 42.1268 145.033 42.1268 150.105V304.839C42.1268 310.055 46.5618 314.101 51.763 313.63L291.845 291.899C296.524 291.476 300.14 287.522 300.14 282.83V154.391C300.14 149.56 296.312 145.657 291.484 145.565Z"/><path fill="url(#paint3_linear)" d="M197.226 233.07L297.825 148.428C296.252 146.709 294.008 145.613 291.484 145.565L51.4014 141.002C49.1172 140.958 47.01 141.774 45.3824 143.146L179.868 234.079C185.168 237.663 192.258 237.25 197.226 233.07Z"/><path fill="url(#paint4_linear)" d="M197.226 233.07C192.258 237.25 185.168 237.663 179.868 234.079L45.3825 143.146C43.3979 144.819 42.127 147.319 42.127 150.106V304.839C42.127 310.055 46.562 314.101 51.7632 313.63L291.846 291.899C296.524 291.476 300.14 287.522 300.14 282.83V154.391C300.14 152.085 299.262 149.997 297.825 148.428L197.226 233.07Z"/><path fill="url(#paint5_linear)" d="M197.226 233.07L297.825 148.428C296.252 146.709 294.008 145.613 291.484 145.565L51.4012 141.002C49.1171 140.958 47.0099 141.774 45.3823 143.146L179.868 234.079C185.168 237.663 192.258 237.25 197.226 233.07Z"/><path fill="url(#paint6_linear)" d="M297.825 148.428L197.226 233.07C192.258 237.25 185.168 237.663 179.868 234.079L45.3824 143.146C43.3978 144.819 42.1268 147.319 42.1268 150.106V172.926C46.9856 170.808 51.0972 170.353 54.4393 170.58C63.6788 171.209 65.8849 176.943 83.5765 184.995C100.118 192.524 101.854 189.179 109.146 194.708C123.194 205.359 117.051 217.999 129.363 229.478C142.185 241.431 153.248 231.827 171.583 243.096C190.957 255.003 184.755 269.507 200.72 277.728C223.087 289.246 245.928 266.27 264.94 277.922C270.689 281.446 274.365 287.081 276.734 293.267L291.845 291.899C296.523 291.476 300.14 287.522 300.14 282.83V154.391C300.14 152.085 299.262 149.997 297.825 148.428Z" opacity=".37"/><path fill="url(#paint7_linear)" d="M267.533 74.5141C269.632 73.1533 267.72 69.1946 267.607 60.6915C267.468 50.2714 270.236 48.3296 268.013 44.2416C265.295 39.2427 258.453 37.1738 253.919 37.0764C252.92 37.0551 252.686 36.509 244.31 38.6781C229.22 42.5863 225.442 38.3969 218.684 42.5817C212.155 46.6252 215.014 51.0533 208.674 55.795C198.397 63.4813 187.59 55.1717 180.245 61.6009C173.298 67.6821 173.138 83.176 180.446 91.6314C188.73 101.217 203.667 98.3369 213.679 96.436C215.785 96.0363 226.425 93.8021 237.503 85.6255C243.631 81.1021 247.839 76.2714 250.516 72.7124C251.145 72.0054 252.125 71.1486 253.419 71.0107C254.973 70.8448 256.221 71.7953 256.823 72.2119C259.981 74.3987 265.471 75.8507 267.533 74.5141Z"/><path fill="url(#paint8_linear)" d="M259.1 68.8033C261.798 66.3446 271.429 71.0834 277.812 77.3728C285.31 84.762 284.734 90.7529 291.278 99.9324C294.531 104.496 300.108 110.64 309.99 116.021C309.29 117.77 308.591 119.519 307.891 121.268C303.113 121.555 293.733 121.386 284.982 115.672C278.903 111.702 275.775 106.443 269.767 96.0848C263.738 85.69 255.726 71.877 259.1 68.8033Z"/><path fill="url(#paint9_linear)" d="M318.043 213.265L314.974 206.744C314.538 205.818 313.858 205.028 313.007 204.458L311.488 203.442C311.488 203.442 307.855 203.345 307.29 205.628C307.168 208.528 312.803 215.006 316.367 217.579C316.958 218.006 317.802 218.575 318.314 218.282C319.182 217.786 318.573 215.119 318.043 213.265Z"/><path fill="url(#paint10_linear)" d="M312.276 199.897C311.792 202.693 312.404 204.151 313.063 204.968C313.527 205.543 317.29 211.748 315.744 212.75C315.047 213.202 310.265 207.265 309.802 206.355C309.382 205.532 309.109 205.726 309.084 203.481C309.068 202.004 308.768 200.814 308.531 200.07C309.78 200.012 311.028 199.954 312.276 199.897Z"/><path fill="url(#paint11_linear)" d="M317.711 177.732C317.711 177.732 321.107 181.785 320.554 186.228C320.002 190.671 314.053 184.176 313.224 181.98C312.395 179.785 311.426 176.657 311.426 176.657C311.426 176.657 315.597 174.062 317.711 177.732Z"/><path fill="url(#paint12_linear)" d="M316.415 171.391C316.415 171.391 315.493 176.112 317.251 178.605C318.126 179.846 319.307 180.898 318.96 181.909C318.727 182.586 317.844 183.072 317.095 182.996C315.662 182.849 314.868 180.652 314.308 179.103C313.48 176.814 313.019 171.917 313.019 171.917L316.415 171.391Z"/><path fill="url(#paint13_linear)" d="M313.707 175.371C314.752 174.991 315.797 174.61 316.841 174.229C318.471 170.507 320.46 164.394 319.796 156.963C318.087 137.853 300.413 127.726 298.449 126.643C293.634 129.059 288.756 132.467 288.579 136.764C288.358 142.158 295.706 145.009 302.613 152.897C306.76 157.631 311.19 164.686 313.707 175.371Z"/><path fill="url(#paint14_linear)" d="M312.582 202.082C316.033 188.6 315.151 177.598 314.156 171.26C312.651 161.68 309.59 142.194 296.58 134.928C293.739 133.341 289.678 131.92 284.728 127.509C280.594 123.825 277.967 119.951 276.381 117.221C258.982 112.117 242.934 114.186 235.852 123.517C235.034 124.595 232.986 126.934 232.589 130.383C231.695 138.163 239.34 147.531 247.919 149.487C258.822 151.973 265.148 140.778 274.807 144.503C277.509 145.545 279.8 148.127 284.382 153.29C290.211 159.86 293.487 165.921 294.727 168.347C298.418 175.569 301.217 180.901 301.625 187.811C301.72 189.42 301.777 192.673 303.663 196.18C305.11 198.873 307.072 200.668 308.531 201.777C309.882 201.878 311.232 201.981 312.582 202.082Z"/><path fill="url(#paint15_linear)" d="M232.59 130.382C232.986 126.934 235.034 124.595 235.853 123.517C242.934 114.186 258.982 112.117 276.381 117.221C277.967 119.951 280.594 123.825 284.728 127.509C289.678 131.92 293.739 133.341 296.58 134.928C304.524 139.365 308.755 148.357 311.191 156.869C307.577 151.265 304.483 149.775 302.089 149.749C298.662 149.711 297.131 152.641 293.039 152.241C288.665 151.813 287.665 148.197 284.12 147.782C283.059 147.657 281.753 147.821 280.185 148.656C278.092 146.465 276.532 145.167 274.808 144.503C265.148 140.778 258.823 151.973 247.919 149.487C239.341 147.531 231.695 138.163 232.59 130.382Z" opacity=".3"/><path fill="url(#paint16_linear)" d="M303.567 140.958C301.597 140.854 298.565 140.793 294.907 141.154C277.546 142.87 272.76 151.458 258.412 153.553C255.018 154.049 239.906 156.256 233.36 147.519C228.661 141.247 229.372 130.44 234.512 126.189C236.688 124.39 238.841 124.44 252.772 124.566C258.019 124.614 263.265 124.631 268.512 124.698C290.719 124.981 294.967 123.443 299.007 127.116C300.892 128.829 303.649 132.51 303.567 140.958Z"/><path fill="url(#paint17_linear)" d="M256.684 69.7045C256.684 69.7045 239.154 64.5923 231.434 73.3316C230.017 74.9361 228.896 77.046 228.081 81.1189C223.925 101.873 239.643 114.339 233.45 125.289C230.991 129.637 226.66 130.947 223.582 138.761C223.061 140.084 221.177 144.869 222.906 146.376C224.429 147.704 226.934 144.901 231.383 145.442C236.095 146.016 237.196 149.635 240.366 149.108C242.433 148.764 243.324 147 246.369 142.6C250.778 136.231 252.982 133.046 254.562 131.929C260.796 127.523 265.615 133.269 272.724 128.906C275.298 127.327 284.834 115.048 282.028 118.421C275.351 110.09 273.799 103.217 273.639 98.4382C273.464 93.1989 274.975 90.8178 273.639 84.6244C273.639 84.6244 272.15 77.7138 266.775 71.7798C266.003 70.9278 265.083 70.0407 256.684 69.7045Z"/><path fill="url(#paint18_linear)" d="M251.055 58.3345C251.293 59.4435 252.501 65.3951 250.066 66.9263C249.538 67.2585 248.524 67.4486 246.496 67.8288C245.168 68.0777 244.053 68.2303 243.268 68.3241C243.381 69.3222 243.717 70.9466 244.869 72.4243C248.097 76.5664 254.571 75.4945 255.494 75.3263C258.75 74.7334 261.955 73.7272 262.729 73.1125C263.907 72.1761 264.833 71.4736 265.381 70.76C264.121 70.151 261.577 68.5451 259.87 68.0195C258.594 67.6271 257.396 67.3469 256.306 67.1458C256.127 65.9962 255.948 64.8467 255.769 63.6968C254.198 61.9093 252.627 60.122 251.055 58.3345Z"/><path fill="url(#paint19_linear)" d="M250.941 61.3007C250.941 61.3007 251.381 65.6621 255.621 66.4307C259.417 67.119 262.275 57.9455 260.332 55.5729C259.684 54.7813 258.084 54.0284 256.697 54.0681C255.722 54.0964 252.427 55.3512 251.967 58.6478C251.311 57.9564 250.494 57.7579 250.09 58.0472C249.579 58.4146 249.853 59.4822 249.915 59.724C250.131 60.5623 250.678 61.0817 250.941 61.3007Z"/><path fill="url(#paint20_linear)" d="M282.029 118.421C281.225 117.419 280.5 116.439 279.838 115.48C276.155 114.246 272.969 113.786 270.399 113.662C264.601 113.38 261.426 114.745 257.48 112.37C253 109.674 253.793 105.932 249.47 103.843C244.92 101.645 241.703 104.129 237.326 103.327C234.683 102.842 231.463 101.074 228.177 95.9176C230.693 108.333 238.011 117.225 233.45 125.289C230.991 129.637 226.66 130.947 223.582 138.761C223.061 140.084 221.176 144.869 222.906 146.377C224.429 147.705 226.934 144.901 231.383 145.443C236.095 146.016 237.196 149.636 240.366 149.108C242.433 148.765 243.324 147 246.369 142.6C250.777 136.231 252.982 133.046 254.562 131.929C260.796 127.523 265.615 133.269 272.724 128.906C275.298 127.327 284.834 115.048 282.029 118.421Z" opacity=".3"/><path fill="url(#paint21_linear)" d="M287.311 120.551L247.648 122.481C247.102 122.508 246.604 122.801 246.315 123.264L245.217 125.026C244.671 125.903 245.327 127.034 246.36 126.994L288.372 125.394L287.311 120.551Z"/><path fill="url(#paint22_linear)" d="M328.564 98.4641L287.587 99.2582C286.375 99.2816 285.265 99.9421 284.666 100.996L270.476 125.962L313.752 124.238C314.94 124.19 316.024 123.547 316.634 122.527L329.781 100.564C330.341 99.6288 329.654 98.443 328.564 98.4641Z"/><path fill="url(#paint23_linear)" d="M284.665 100.997C285.265 99.9423 286.375 99.2816 287.587 99.2582L288.485 99.2408C288.619 100.564 289.025 101.773 289.835 102.75C292.361 105.8 296.559 103.919 299.688 107.147C303.125 110.692 299.95 114.913 303.023 118.212C306.257 121.686 311.488 118.858 317.5 121.08L316.634 122.527C316.024 123.547 314.94 124.19 313.752 124.237L270.476 125.962L284.665 100.997Z" opacity=".3"/><path fill="url(#paint24_linear)" d="M250.88 119.226C251.396 117.863 251.912 116.5 252.428 115.136C246.723 113.572 238.832 111.26 230.738 108.368C229.47 107.915 227.964 107.354 227.471 106.02C226.087 102.279 234.885 98.4012 238.306 90.2311C241.469 82.6748 239.728 72.1887 236.057 70.9498C228.417 68.3721 201.327 102.093 211.002 116.309C216.471 124.344 233.333 125.624 250.88 119.226Z"/><path fill="url(#paint25_linear)" d="M252.428 115.136C256.01 113.233 260.298 115.184 260.574 115.314C261.361 115.686 262.507 116.348 263.664 117.53C263.795 117.708 265.349 119.861 264.783 120.551C264.329 121.104 262.572 120.646 260.46 119.332C259.575 119.208 258.257 119.094 256.679 119.24C253.779 119.507 252.451 120.423 251.399 119.633C250.628 119.054 250.366 117.83 250.643 116.92C250.941 115.943 251.822 115.458 252.428 115.136Z"/></svg>