<svg width="283" height="280" viewBox="0 0 283 280" fill="none" xmlns="http://www.w3.org/2000/svg">
    <defs>
        <linearGradient id="paint0_linear" x1="79.6651" y1="113.911" x2="369.495" y2="-129.077" gradientUnits="userSpaceOnUse">
            <stop offset="0.0036" stop-color="#E38DDD"/>
            <stop offset="1" stop-color="#9571F6"/>
        </linearGradient>
        <linearGradient id="paint1_linear" x1="258.157" y1="199.511" x2="154.515" y2="199.511" gradientUnits="userSpaceOnUse">
            <stop stop-color="#AA80F9"/>
            <stop offset="0.9964" stop-color="#6165D7"/>
        </linearGradient>
        <linearGradient id="paint2_linear" x1="195.389" y1="442.726" x2="133.167" y2="302.964" gradientUnits="userSpaceOnUse">
            <stop stop-color="#AA80F9"/>
            <stop offset="0.9964" stop-color="#6165D7"/>
        </linearGradient>
        <linearGradient id="paint3_linear" x1="157.905" y1="452.498" x2="79.0263" y2="321.476" gradientUnits="userSpaceOnUse">
            <stop stop-color="#AA80F9"/>
            <stop offset="0.9964" stop-color="#6165D7"/>
        </linearGradient>
        <linearGradient id="paint4_linear" x1="77.213" y1="212.407" x2="168.172" y2="212.407" gradientUnits="userSpaceOnUse">
            <stop stop-color="#AA80F9"/>
            <stop offset="0.9964" stop-color="#6165D7"/>
        </linearGradient>
        <linearGradient id="paint5_linear" x1="75.1788" y1="67.9044" x2="176.339" y2="295.93" gradientUnits="userSpaceOnUse">
            <stop stop-color="#AA80F9"/>
            <stop offset="0.9964" stop-color="#6165D7"/>
        </linearGradient>
        <linearGradient id="paint6_linear" x1="59.2838" y1="240.733" x2="119.844" y2="240.733" gradientUnits="userSpaceOnUse">
            <stop stop-color="#AA80F9"/>
            <stop offset="0.9964" stop-color="#6165D7"/>
        </linearGradient>
        <linearGradient id="paint7_linear" x1="107.203" y1="138.114" x2="123.656" y2="96.0197" gradientUnits="userSpaceOnUse">
            <stop stop-color="#311944"/>
            <stop offset="1" stop-color="#6B3976"/>
        </linearGradient>
        <linearGradient id="paint8_linear" x1="112.253" y1="140.11" x2="128.722" y2="97.9729" gradientUnits="userSpaceOnUse">
            <stop stop-color="#311944"/>
            <stop offset="1" stop-color="#6B3976"/>
        </linearGradient>
        <linearGradient id="paint9_linear" x1="128.33" y1="114.674" x2="127.493" y2="122.364" gradientUnits="userSpaceOnUse">
            <stop stop-color="#FFC444"/>
            <stop offset="1" stop-color="#F36F56"/>
        </linearGradient>
        <linearGradient id="paint10_linear" x1="138.631" y1="311.082" x2="132.08" y2="253.782" gradientUnits="userSpaceOnUse">
            <stop stop-color="#FF9085"/>
            <stop offset="1" stop-color="#FB6FBB"/>
        </linearGradient>
        <linearGradient id="paint11_linear" x1="150.966" y1="309.671" x2="144.415" y2="252.371" gradientUnits="userSpaceOnUse">
            <stop stop-color="#FF9085"/>
            <stop offset="1" stop-color="#FB6FBB"/>
        </linearGradient>
        <clipPath id="clip0">
            <rect width="279" height="280" fill="white"/>
        </clipPath>
    </defs>
    <path d="M92.1997 227.476C120.371 215.429 132.563 178.505 123.329 165.62C118.526 158.918 109.914 161.493 105.897 153.864C101.445 145.411 109.817 138.072 113.377 118.478C115.217 108.354 118.554 89.9958 109.48 81.0912C100.482 72.2604 88.2503 81.5309 78.0435 72.5648C68.3924 64.0865 75.6609 52.5756 64.9048 37.8165C63.9044 36.4435 52.4598 21.1327 39.9493 23.2207C27.2388 25.3421 17.9172 44.6725 20.8753 58.9351C23.5628 71.8931 35.596 76.8594 33.2471 83.5451C30.6583 90.9128 15.1973 87.295 11.8113 94.6085C6.91707 105.18 35.6499 120.45 32.1963 138.17C30.1656 148.59 19.32 147.981 13.9196 160.467C6.94963 176.583 16.4582 197.384 26.2685 208.973C40.4858 225.768 67.7819 237.918 92.1997 227.476Z" fill="url(#paint0_linear)"/>
<g opacity="0.7">
<path opacity="0.7" d="M76.0428 240.975L77.0136 240.951C76.0825 203.359 73.0953 167.98 68.1342 135.797C64.1645 110.045 58.9294 86.2685 52.5742 65.1286C41.7443 29.1045 31.2594 13.0039 31.1549 12.8455L30.3446 13.3807C30.4485 13.5384 40.8744 29.5614 51.6644 65.4758C61.6239 98.6258 73.9379 155.983 76.0428 240.975Z" fill="white"/>
<path opacity="0.7" d="M53.4906 68.6192C65.3582 40.9576 61.3201 15.2466 61.2779 14.99L60.3196 15.1476C60.3615 15.4017 64.3491 40.8458 52.5981 68.2364L53.4906 68.6192Z" fill="white"/>
<path opacity="0.7" d="M68.9382 140.396C90.6 115.78 99.6183 96.864 103.369 85.3299C107.455 72.7667 106.396 66.1282 106.349 65.8518L105.391 66.0143C105.403 66.0802 106.453 72.7628 102.412 85.1328C98.6788 96.5625 89.7142 115.317 68.2092 139.754L68.9382 140.396Z" fill="white"/>
<path opacity="0.7" d="M75.476 209.071C122.049 175.649 130.977 143.049 131.061 142.723L130.121 142.479C130.1 142.561 127.761 151.004 119.463 163.562C112.157 174.621 98.4959 191.356 74.9099 208.282L75.476 209.071Z" fill="white"/>
<path opacity="0.7" d="M57.0635 128.015C60.1676 129.307 63.3937 130.452 66.7413 131.411L67.0088 130.477C45.1364 124.212 28.3818 109.869 18.1789 98.9392C7.11861 87.0908 1.16864 76.6042 1.10992 76.4996L0.26326 76.9758C0.322767 77.0815 6.3299 87.6694 17.4687 99.602C26.1963 108.951 39.685 120.781 57.0635 128.015Z" fill="white"/>
<path opacity="0.7" d="M70.1024 194.776C71.4564 195.311 72.8483 195.808 74.2815 196.263L74.5305 195.557C56.3568 189.785 44.6802 177.129 38.0843 167.528C30.9319 157.117 28.0505 147.968 28.0223 147.877L27.2695 148.087C27.2982 148.179 30.2124 157.433 37.427 167.935C43.5715 176.879 54.0865 188.45 70.1024 194.776Z" fill="white"/>
</g>
<path d="M133.309 249.085C106.338 228.126 103.635 184.86 117.237 173.578C124.312 167.71 132.87 172.923 139.361 165.832C146.551 157.976 139.6 147.694 141.302 125.558C142.182 114.121 143.777 93.3803 156.08 86.3443C168.281 79.3667 178.848 92.8233 192.39 86.0418C205.196 79.6293 200.614 65.1606 216.387 52.2877C217.854 51.0902 234.526 37.8168 247.426 43.6071C260.532 49.4899 265.116 72.9713 257.892 87.5144C251.329 100.727 236.948 102.679 237.59 110.553C238.298 119.23 255.994 119.702 257.576 128.546C259.864 141.33 224.561 149.669 223.273 169.754C222.516 181.565 237.024 185.522 231.842 199.775C223.49 222.751 217.603 227.466 203.746 237.188C183.664 251.278 156.686 267.251 133.309 249.085Z" fill="#D8DEE8"/>
<g opacity="0.7">
<path opacity="0.7" d="M146.913 268.212L145.873 267.911C157.511 227.637 170.739 190.332 185.191 157.031C196.756 130.384 209.126 106.226 221.959 85.2281C243.826 49.4447 259.687 35.0486 259.844 34.9072L260.567 35.7135C260.41 35.8542 244.635 50.1835 222.842 85.8593C202.725 118.789 173.223 177.156 146.913 268.212Z" fill="white"/>
<path opacity="0.7" d="M219.983 88.7324C215.01 55.5472 226.637 28.9642 226.755 28.6993L227.744 29.1404C227.627 29.4022 216.13 55.7119 221.054 88.572L219.983 88.7324Z" fill="white"/>
<path opacity="0.7" d="M183.023 161.763C166.627 129.092 162.252 106.143 161.47 92.6442C160.618 77.9413 163.638 71.0821 163.766 70.7973L164.753 71.2433C164.722 71.3115 161.7 78.2204 162.558 92.702C163.351 106.083 167.713 128.842 183.991 161.277L183.023 161.763Z" fill="white"/>
<path opacity="0.7" d="M156.549 233.968C115.78 184.755 115.375 147.076 115.375 146.701L116.458 146.703C116.458 146.797 116.592 156.564 121.988 172.453C126.739 186.445 136.736 208.354 157.382 233.278L156.549 233.968Z" fill="white"/>
<path opacity="0.7" d="M199.33 151.771C195.618 152.286 191.815 152.608 187.934 152.695L187.91 151.613C213.268 151.044 235.392 140.316 249.485 131.416C264.764 121.768 274.146 112.142 274.238 112.046L275.017 112.799C274.923 112.896 265.45 122.614 250.064 132.331C238.008 139.945 220.116 148.886 199.33 151.771Z" fill="white"/>
<path opacity="0.7" d="M166.107 219.913C164.508 220.141 162.879 220.313 161.218 220.424L161.159 219.528C182.218 218.117 198.363 206.782 208.2 197.522C218.866 187.48 224.61 177.66 224.667 177.562L225.408 178.027C225.351 178.126 219.541 188.059 208.782 198.188C199.618 206.815 185.029 217.224 166.107 219.913Z" fill="white"/>
</g>
<g clip-path="url(#clip0)">
<path d="M251.988 196.316C251.988 196.316 253.907 188.761 257.102 186.767C260.295 184.773 264.81 182.641 265.844 181.765C266.879 180.889 268.087 183.508 265.106 185.511C262.126 187.515 262.126 187.515 262.126 187.515C262.063 188.068 262.147 188.497 262.248 188.8C262.72 190.218 264.331 191.191 266.321 191.375C273.969 192.982 276.957 193.06 278.123 192.718C278.296 192.667 278.961 192.45 279.243 192.747C279.692 193.223 278.883 194.731 278.538 195.259C276.469 198.43 269.287 199.81 263.909 197.329C261.945 196.424 261.193 195.451 259.76 195.695C257.484 196.083 256.085 199.096 255.259 201.591L251.988 196.316Z" fill="#FFC857"/>
<path d="M258.157 198.711C255.979 196.768 253.801 194.826 251.623 192.883C250.826 193.691 239.201 205.076 222.95 201.625C211.76 199.249 205.306 190.027 201.172 184.141C188.755 166.461 196.181 153.488 182.812 141.474C179.099 138.138 171.816 134.098 167.054 135.33C155.709 138.265 149.178 172.507 160.158 199.44C162.374 204.876 174.578 234.809 202.261 238.051C224.613 240.67 248.315 224.864 258.157 198.711Z" fill="white"/>
<path opacity="0.15" d="M169.595 168.113C190.055 184.331 187.778 215.438 200.356 217.015C204.198 217.496 203.986 214.541 213.15 211.551C226.553 207.178 232.849 211.595 242.277 208.273C246.182 206.897 251.261 203.957 256.263 197.022C256.895 197.585 257.526 198.148 258.157 198.711C248.315 224.864 224.614 240.669 202.262 238.051C174.578 234.808 162.374 204.876 160.158 199.44C155.006 186.802 153.709 172.556 154.957 160.69C159.679 162.072 164.809 164.32 169.595 168.113Z" fill="url(#paint1_linear)"/>
<path d="M160.143 266.893C160.544 298.324 162.681 333.664 167.809 372.06C172.877 410.008 179.98 444.296 187.728 474.447C184.153 475.412 180.579 476.377 177.004 477.342C167.936 468.856 156.497 455.498 150.976 436.62C147.551 424.903 148.692 418.883 146.519 404.472C143.059 381.526 136.05 369.504 128.807 351.001C122.297 334.373 114.603 309.971 110.477 277.354C127.032 273.867 143.587 270.38 160.143 266.893Z" fill="url(#paint2_linear)"/>
<path d="M120.77 267.037C118.582 307.012 116.783 347.731 115.42 389.171C114.396 420.268 113.645 450.97 113.146 481.269C109.494 481.721 105.844 482.174 102.192 482.626C98.6638 476.034 93.9782 465.955 90.7679 453.038C86.8692 437.349 87.7721 428.032 86.0625 411.772C84.1437 393.535 81.3574 389.562 76.4208 366.556C66.4022 319.866 61.3925 296.521 72.5687 282C76.1968 277.285 87.5699 265.459 120.77 267.037Z" fill="url(#paint3_linear)"/>
<path d="M77.213 135.115C85.7633 132.702 98.295 129.88 113.643 129.009C135.532 127.768 146.476 127.147 154.232 132.378C172.145 144.461 158.277 172.347 165.61 241.476C168.726 270.857 170.131 268.956 163.108 279.413C148.838 300.659 108.757 302.4 90.3957 283.98C80.6914 274.244 79.44 273.695 79.2066 262.586C78.2854 218.737 77.5912 177.332 77.213 135.115Z" fill="url(#paint4_linear)"/>
<path d="M171.609 135.777C160.229 129.906 149.661 128.832 143.689 128.677C138.273 142.106 131.469 162.346 128.251 187.669C125.348 210.525 126.704 225.648 128.259 257.047C129.241 276.884 130.242 305.626 129.941 341.034C135.967 342.974 140.895 343.43 144.201 343.504C155.916 343.767 159.829 339.52 171.795 340.695C177.015 341.209 178.314 342.217 180.07 341.043C184.966 337.767 181.301 325.62 178.844 312.429C175.045 292.033 179.181 296.231 175.472 263.201C172.396 235.819 168.154 220.469 172.099 218.896C174.218 218.051 176.211 138.151 171.609 135.777Z" fill="white"/>
<path opacity="0.15" d="M160.143 266.893C160.297 246.29 171.234 243.377 170.133 225.652C169.024 207.801 157.685 206.821 158.077 191.459C158.554 172.778 175.511 166.879 174.85 149.903C174.627 144.179 172.462 139.131 169.648 134.855C159.029 129.837 149.314 128.823 143.689 128.677C138.272 142.106 131.468 162.346 128.251 187.669C125.347 210.525 126.704 225.648 128.259 257.047C129.241 276.883 130.242 305.626 129.941 341.034C135.967 342.974 140.895 343.43 144.2 343.504C155.916 343.767 159.829 339.519 171.795 340.695C177.015 341.209 178.314 342.217 180.07 341.043C184.347 338.181 182.089 328.545 179.812 317.359C176.216 312.699 172.509 308.218 168.56 299.824C165.577 293.482 160.032 281.694 160.143 266.893Z" fill="url(#paint5_linear)"/>
<path d="M117.528 191.512C120.208 201.726 119.961 209.856 119.675 217.357C118.1 258.685 117.298 279.469 116.609 285.353C113.261 313.926 110.895 312.147 111.708 323.751C112.143 329.963 113.157 335.28 109.771 339.189C105.732 343.851 99.9221 341.328 85.6254 343.178C72.4819 344.879 72.1346 347.692 57.9313 349.405C52.161 350.101 36.4 352.003 34.7531 347.504C33.8725 345.098 37.1324 341.148 40.2715 339.197C45.387 336.016 49.7465 338.413 51.4733 335.877C53.4525 332.968 48.1094 329.254 47.9358 322.275C47.7631 315.317 52.9239 313.056 56.1276 304.513C59.1128 296.553 57.9096 289.779 57.4492 284.98C55.3954 263.573 64.784 246.643 66.6368 218.28C69.5225 174.114 50.706 154.713 63.4786 140.561C70.3949 132.899 81.777 132.088 88.8937 132.261C96.2879 147.72 102.656 159.882 107.166 168.236C112.035 177.256 115.228 182.744 117.528 191.512Z" fill="white"/>
<path d="M146.193 180.128C145.143 176.501 141.828 173.024 143.127 168.744C143.894 166.223 145.909 164.589 147.458 163.614C157.664 161.312 164.53 151.729 163.515 141.669C163.107 137.628 161.461 133.908 158.954 130.889C152.724 129.217 147.343 128.772 143.689 128.677C138.272 142.106 131.469 162.346 128.251 187.669C126.881 198.453 126.466 207.526 126.567 217.389C128.335 211.721 130.818 207.487 133.451 204.273C137.909 198.83 148.751 188.964 146.193 180.128Z" fill="white"/>
<g opacity="0.64">
<path opacity="0.3" d="M117.528 191.512C115.228 182.744 112.034 177.256 107.166 168.236C102.656 159.882 96.2881 147.719 88.8938 132.261C87.1683 132.219 85.1888 132.238 83.086 132.395C71.8301 147.997 71.1166 156.719 73.7309 161.896C76.2788 166.94 81.607 167.92 82.3032 173.367C83.3916 181.882 71.0443 184.793 68.0162 196.308C65.3719 206.361 71.5586 216.4 77.381 225.851C87.2846 241.924 96.3522 243.91 96.0195 252.516C95.6726 261.47 85.7662 261.629 81.7317 272.59C75.4086 289.77 95.058 302.124 89.1612 317.326C84.5912 329.107 70.7896 326.843 62.301 341.988C60.9546 344.391 59.9972 346.826 59.2836 349.225C72.1346 347.501 72.9246 344.822 85.6257 343.178C99.9219 341.328 105.732 343.851 109.771 339.189C113.157 335.28 112.143 329.963 111.707 323.751C110.895 312.147 113.261 313.926 116.609 285.353C117.298 279.469 118.099 258.685 119.675 217.357C119.961 209.856 120.208 201.726 117.528 191.512Z" fill="url(#paint6_linear)"/>
</g>
<path d="M87.484 167.667C93.2895 172.846 97.4897 174.594 98.215 179.534C99.0147 184.975 94.4965 186.795 95.2649 192.093C96.2252 198.719 103.709 198.734 107.565 207.204C110.089 212.749 107.888 214.949 109.404 222.126C110.329 226.5 112.617 232.596 118.831 239.363C119.086 232.788 119.365 225.475 119.675 217.357C119.961 209.856 120.208 201.726 117.528 191.512C115.228 182.744 112.035 177.255 107.166 168.236C102.656 159.882 96.288 147.719 88.8938 132.261C84.7228 132.16 79.0893 132.408 73.7462 134.164C71.9006 137.542 71.5949 140.228 71.5423 141.669C71.1263 153.076 83.6077 164.21 87.484 167.667Z" fill="white"/>
<path d="M115.277 105.008C115.331 111.521 114.607 116.686 113.923 120.223C113.138 124.276 112.573 125.323 111.851 126.172C110.765 127.451 109.119 128.524 99.8203 130.838C94.7598 132.097 94.109 132.063 93.9972 132.567C93.4521 135.025 107.25 143.405 121.507 141.385C130.231 140.149 138.169 135.154 137.682 132.53C137.192 129.89 128.477 131.307 125.879 126.531C124.072 123.208 126.098 118.491 128.492 114.585C126.173 110.224 117.596 109.369 115.277 105.008Z" fill="#FFC857"/>
<path d="M131.471 107.583C133.529 104.838 133.656 100.046 131.284 97.0165C129.242 94.4099 126.029 94.0383 124.106 93.8149C118.532 93.169 111.499 95.5042 109.053 100.653C107.603 103.704 110.739 110.043 111.23 111.183C111.786 112.472 112.794 112.914 113.727 113.888C115.019 115.239 117.042 117.388 120.345 120.982C120.601 119.921 120.992 118.609 121.611 117.186C121.85 116.638 122.808 114.499 124.258 112.726C127.163 109.17 129.518 110.184 131.471 107.583Z" fill="url(#paint7_linear)"/>
<path d="M115.634 117.959C115.634 117.959 119.298 123.993 126.593 123.516C133.125 123.089 134.082 108.388 129.91 105.269C128.518 104.228 125.73 103.796 123.464 104.434C122.125 104.81 121.672 105.369 119.472 105.941C117.443 106.469 116.871 106.244 116.258 106.76C115.492 107.408 114.931 108.994 116.21 113.291C114.964 112.025 113.468 111.539 112.408 112.041C112.239 112.122 111.791 112.428 111.538 112.892C110.625 114.571 112.153 116.715 115.634 117.959Z" fill="#FFC857"/>
<path d="M115.963 105.881C116.278 106.117 115.315 107.296 115.243 108.966C115.103 112.206 118.372 116.096 121.706 116.426C123.677 116.621 124.219 115.428 127.478 115.083C129.495 114.869 131.174 115.127 132.231 115.358C133.255 118.912 132.291 122.456 129.924 124.1C127.376 125.87 124.12 124.796 122.76 124.347C121.849 124.046 118.932 123.09 117.407 120.405C115.818 117.607 117.377 115.92 115.555 114.028C114.635 113.074 113.428 112.66 112.252 110.812C111.933 110.31 111.72 109.866 111.589 109.567C113.275 107.774 115.507 105.54 115.963 105.881Z" fill="url(#paint8_linear)"/>
<path d="M129.86 116.676C129.86 116.676 128.449 117.415 126.011 117.278C125.893 117.271 125.762 117.306 125.747 117.368C125.691 117.599 127.255 118.64 128.696 118.234C129.719 117.945 130.515 116.973 130.377 116.725C130.319 116.621 130.087 116.635 129.86 116.676Z" fill="url(#paint9_linear)"/>
<path d="M92.2063 200.032C95.9307 207.969 78.8163 226.456 59.7948 235.234C55.9192 237.024 28.0871 249.866 15.6828 237.517C5.43315 227.311 12.0481 206.21 14.4097 198.677C26.0063 161.685 58.8213 140.951 73.7464 134.164C84.885 162.115 81.1233 176.486 78.5414 180.375C75.8438 184.438 68.3162 192.971 60.3215 200.489C54.6979 205.777 51.1955 208.35 51.6668 209.175C52.2528 210.201 58.8448 208.262 84.4484 195.755C87.4164 196.237 90.9337 197.321 92.2063 200.032Z" fill="white"/>
<path d="M155.528 153.64L110.208 157.9C109.257 157.989 108.459 158.654 108.196 159.574L91.2836 218.842C90.8359 220.41 92.0954 221.942 93.7145 221.798L139.407 217.752C140.369 217.667 141.176 216.993 141.435 216.061L157.976 156.58C158.412 155.01 157.145 153.488 155.528 153.64Z" fill="url(#paint10_linear)"/>
<path d="M85.7396 198.176C85.7396 198.176 101.347 182.148 107.699 179.781C114.05 177.413 108.427 194.318 104.705 196.702C100.984 199.086 99.5321 199.997 96.6282 200.361C93.7247 200.726 93.7247 200.726 93.7247 200.726L89.9131 202.765C89.9131 202.765 85.0141 202.183 85.7396 198.176Z" fill="#FFC857"/>
<path opacity="0.3" d="M125.363 204.903C127.072 195.534 121.805 188.269 126.853 179.488C132.045 170.454 141.161 171.979 147.708 164.537C149.793 162.169 151.663 158.812 152.582 153.917L155.528 153.64C157.145 153.488 158.412 155.01 157.976 156.58L141.436 216.061C141.176 216.994 140.369 217.667 139.407 217.752L116.204 219.807C122.108 214.49 124.548 209.372 125.363 204.903Z" fill="url(#paint11_linear)"/>
</g>
</svg>
